<svg width="167" height="47" viewBox="0 0 167 47" fill="none" xmlns="http://www.w3.org/2000/svg">
<path d="M38.6665 27.7011C38.6665 38.3596 30.0107 47 19.3333 47C8.65579 47 0 38.3596 0 27.7011C0 17.0426 8.65579 8.40224 19.3333 8.40224C30.0107 8.40224 38.6665 17.0426 38.6665 27.7011Z" fill="#FF8743"/>
<path d="M19.4166 47C21.2276 28.6201 20.1712 13.6099 19.4166 8.40224C16.1763 11.2063 10.255 22.6031 12.4921 45.7578C14.6448 46.5606 16.9787 47 19.4166 47Z" fill="#FAFF00"/>
<path d="M19.4186 47C22.2593 47 24.9559 46.3792 27.3815 45.2651C31.0366 24.4471 23.5958 12.0157 19.4186 8.40224C20.1583 13.6099 21.1939 28.6201 19.4186 47Z" fill="#A838FF"/>
<path d="M27.3924 45.2575C29.6967 44.2129 31.7595 42.7346 33.4749 40.9277C39.8954 19.2334 25.2929 11.545 19.3265 8.40362C23.5578 12.0162 31.0948 24.4445 27.3924 45.2575Z" fill="#2663FF"/>
<path d="M21.6951 2.69951L19.4648 8.40223L25.7621 5.91643L27.882 0L21.6951 2.69951Z" fill="#00B84A"/>
<path d="M52.9926 36.6905C51.1408 36.6905 49.693 36.1779 48.6493 35.1529C47.6056 34.111 47.0837 32.6658 47.0837 30.8173H50.5179C50.5179 31.6911 50.7368 32.3801 51.1745 32.8842C51.629 33.3716 52.2519 33.6152 53.0431 33.6152H55.846C56.5867 33.6152 57.1843 33.464 57.6389 33.1615C58.1102 32.8422 58.3459 32.4221 58.3459 31.9012V31.0442C58.3459 30.2207 57.7399 29.7082 56.5278 29.5065L51.8815 28.7251C50.3664 28.4731 49.2133 27.9941 48.422 27.2884C47.6477 26.5658 47.2605 25.6499 47.2605 24.5408V23.1293C47.2605 22.2386 47.4962 21.4572 47.9675 20.785C48.4557 20.096 49.1375 19.5667 50.0129 19.197C50.9051 18.8273 51.932 18.6425 53.0936 18.6425H55.947C57.0413 18.6425 58.0092 18.8693 58.851 19.323C59.6927 19.7768 60.3408 20.4153 60.7953 21.2387C61.2667 22.0454 61.5024 22.9864 61.5024 24.0619H58.0682C58.0682 23.3561 57.8746 22.7932 57.4874 22.3731C57.1002 21.9361 56.5867 21.7177 55.947 21.7177H53.0936C52.3865 21.7177 51.8142 21.8689 51.3765 22.1714C50.9556 22.4739 50.7452 22.8772 50.7452 23.3813V24.0619C50.7452 24.9021 51.326 25.4231 52.4876 25.6247L57.1086 26.4313C58.6405 26.7002 59.8105 27.1791 60.6186 27.8681C61.4266 28.5403 61.8306 29.4141 61.8306 30.4896V32.1533C61.8306 33.0439 61.5781 33.8337 61.0731 34.5227C60.5849 35.2117 59.8947 35.7494 59.0025 36.1359C58.1102 36.5056 57.0749 36.6905 55.8965 36.6905H52.9926Z" fill="black"/>
<path d="M70.4982 36.6905C69.1683 36.6905 67.9899 36.4132 66.963 35.8586C65.953 35.2873 65.1617 34.4975 64.5894 33.4892C64.0338 32.4641 63.7561 31.2794 63.7561 29.9351V25.3979C63.7561 24.0535 64.0338 22.8772 64.5894 21.8689C65.1617 20.8438 65.953 20.054 66.963 19.4995C67.9899 18.9281 69.1683 18.6425 70.4982 18.6425H73.1749C74.5048 18.6425 75.6748 18.9281 76.6849 19.4995C77.7118 20.054 78.503 20.8438 79.0585 21.8689C79.6309 22.8772 79.9171 24.0535 79.9171 25.3979V29.9351C79.9171 31.2794 79.6309 32.4641 79.0585 33.4892C78.503 34.4975 77.7118 35.2873 76.6849 35.8586C75.6748 36.4132 74.5048 36.6905 73.1749 36.6905H70.4982ZM73.1749 33.6152C74.1513 33.6152 74.9341 33.2623 75.5233 32.5566C76.1294 31.8508 76.4324 30.9265 76.4324 29.7838V25.5491C76.4324 24.4064 76.1294 23.4821 75.5233 22.7764C74.9341 22.0706 74.1513 21.7177 73.1749 21.7177H70.4982C69.5219 21.7177 68.7306 22.0706 68.1246 22.7764C67.5354 23.4821 67.2408 24.4064 67.2408 25.5491V29.7838C67.2408 30.9265 67.5354 31.8508 68.1246 32.5566C68.7306 33.2623 69.5219 33.6152 70.4982 33.6152H73.1749Z" fill="black"/>
<path d="M82.534 18.8441H95.7658V21.8689H86.0187V26.6078H94.8315V29.6326H86.0187V36.4888H82.534V18.8441Z" fill="black"/>
<path d="M102.117 21.8689H96.5111V18.8441H111.208V21.8689H105.602V36.4888H102.117V21.8689Z" fill="black"/>
<path d="M120.925 32.3801H114.309L112.744 36.4888H109.108L116.026 18.8441H117.592C118.686 18.8441 119.427 19.3482 119.814 20.3565L126.102 36.4888H122.466L120.925 32.3801ZM115.244 29.4561H119.991L117.643 23.104H117.617L115.244 29.4561Z" fill="black"/>
<path d="M127.76 18.8441H137.154C138.686 18.8441 139.914 19.2558 140.84 20.0792C141.783 20.9027 142.254 21.9865 142.254 23.3309V25.0954C142.254 25.9692 142.002 26.7338 141.497 27.3892C141.009 28.0278 140.293 28.5151 139.35 28.8512V28.9016C139.889 29.2545 140.293 29.6578 140.563 30.1115C140.849 30.5652 141.127 31.1954 141.396 32.002L142.81 36.4888H139.199L137.861 32.3045C137.642 31.5819 137.339 31.0442 136.952 30.6913C136.564 30.3384 136.085 30.1619 135.512 30.1619H131.245V36.4888H127.76V18.8441ZM136.497 27.1623C137.204 27.1623 137.76 26.9775 138.164 26.6078C138.568 26.2213 138.77 25.7255 138.77 25.1206V23.4821C138.77 22.9948 138.618 22.6083 138.315 22.3226C138.012 22.0202 137.608 21.8689 137.103 21.8689H131.245V27.1623H136.497Z" fill="black"/>
<path d="M145.126 18.8441H148.611V36.4888H145.126V18.8441Z" fill="black"/>
<path d="M152.001 18.8441H155.106L163.591 30.8425V18.8441H167V36.4888H163.894L155.41 24.4904V36.4888H152.001V18.8441Z" fill="black"/>
</svg>
